<svg width="27" height="22" viewBox="0 0 27 22" fill="none" xmlns="http://www.w3.org/2000/svg">
<path d="M7.37323 4.35869L6.04637 7.93327H20.9824L19.6556 4.35869C19.4268 3.74535 18.8117 3.33327 18.1203 3.33327H8.90852C8.21713 3.33327 7.602 3.74535 7.37323 4.35869ZM2.51317 8.16327L4.30265 3.34764C4.98895 1.50285 6.83435 0.266602 8.90852 0.266602H18.1203C20.1945 0.266602 22.0399 1.50285 22.7262 3.34764L24.5156 8.16327C25.6951 8.62327 26.5288 9.72056 26.5288 10.9999V17.8999V20.1999C26.5288 21.0481 25.8018 21.7333 24.902 21.7333H23.2752C22.3754 21.7333 21.6484 21.0481 21.6484 20.1999V17.8999H5.3804V20.1999C5.3804 21.0481 4.65342 21.7333 3.7536 21.7333H2.1268C1.22698 21.7333 0.5 21.0481 0.5 20.1999V17.8999V10.9999C0.5 9.72056 1.33374 8.62327 2.51317 8.16327ZM7.0072 12.5333C7.0072 12.1266 6.83581 11.7366 6.53072 11.449C6.22564 11.1615 5.81186 10.9999 5.3804 10.9999C4.94895 10.9999 4.53516 11.1615 4.23008 11.449C3.925 11.7366 3.7536 12.1266 3.7536 12.5333C3.7536 12.9399 3.925 13.3299 4.23008 13.6175C4.53516 13.9051 4.94895 14.0666 5.3804 14.0666C5.81186 14.0666 6.22564 13.9051 6.53072 13.6175C6.83581 13.3299 7.0072 12.9399 7.0072 12.5333ZM21.6484 14.0666C22.0799 14.0666 22.4936 13.9051 22.7987 13.6175C23.1038 13.3299 23.2752 12.9399 23.2752 12.5333C23.2752 12.1266 23.1038 11.7366 22.7987 11.449C22.4936 11.1615 22.0799 10.9999 21.6484 10.9999C21.217 10.9999 20.8032 11.1615 20.4981 11.449C20.193 11.7366 20.0216 12.1266 20.0216 12.5333C20.0216 12.9399 20.193 13.3299 20.4981 13.6175C20.8032 13.9051 21.217 14.0666 21.6484 14.0666Z" fill="#75A985"/>
</svg>
