<svg width="26" height="25" viewBox="0 0 26 25" fill="none" xmlns="http://www.w3.org/2000/svg">
<g clip-path="url(#clip0_1039_134)">
<path d="M8.55176 1.20105C8.17578 0.292849 7.18457 -0.190549 6.2373 0.0682396L1.94043 1.24011C1.09082 1.47449 0.5 2.24597 0.5 3.12488C0.5 15.205 10.2949 24.9999 22.375 24.9999C23.2539 24.9999 24.0254 24.4091 24.2598 23.5595L25.4316 19.2626C25.6904 18.3153 25.207 17.3241 24.2988 16.9481L19.6113 14.995C18.8154 14.663 17.8926 14.8925 17.3506 15.5614L15.3779 17.9686C11.9404 16.3427 9.15723 13.5595 7.53125 10.122L9.93848 8.15418C10.6074 7.6073 10.8369 6.68933 10.5049 5.89343L8.55176 1.20594V1.20105Z" fill="#76A985"/>
</g>
<defs>
<clipPath id="clip0_1039_134">
<rect width="25" height="25" fill="white" transform="translate(0.5)"/>
</clipPath>
</defs>
</svg>
