<svg width="25" height="25" viewBox="0 0 25 25" fill="none" xmlns="http://www.w3.org/2000/svg">
<g clip-path="url(#clip0_676_62)">
<path d="M8.05176 1.20081C7.67578 0.292605 6.68457 -0.190794 5.7373 0.0679955L1.44043 1.23987C0.59082 1.47425 0 2.24573 0 3.12464C0 15.2047 9.79492 24.9996 21.875 24.9996C22.7539 24.9996 23.5254 24.4088 23.7598 23.5592L24.9316 19.2623C25.1904 18.3151 24.707 17.3239 23.7988 16.9479L19.1113 14.9948C18.3154 14.6627 17.3926 14.8922 16.8506 15.5612L14.8779 17.9684C11.4404 16.3424 8.65723 13.5592 7.03125 10.1217L9.43848 8.15393C10.1074 7.60706 10.3369 6.68909 10.0049 5.89319L8.05176 1.20569V1.20081Z" fill="#76A985"/>
</g>
<defs>
<clipPath id="clip0_676_62">
<rect width="25" height="25" fill="white" transform="translate(0 -0.000244141)"/>
</clipPath>
</defs>
</svg>
