<svg width="54" height="52" viewBox="0 0 54 52" fill="none" xmlns="http://www.w3.org/2000/svg">
<path d="M46.4656 2.59995H50.0656C50.3971 2.59995 50.6656 2.86849 50.6656 3.19995V6.79995C50.6656 10.7764 47.4421 14 43.4656 14H36.8656C32.8892 14 29.6656 10.7764 29.6656 6.79995V3.19995C29.6656 2.86849 29.9342 2.59995 30.2656 2.59995H33.8656C34.5284 2.59995 35.0656 2.06271 35.0656 1.39995C35.0656 0.737197 34.5284 0.199951 33.8656 0.199951H30.2656C28.6087 0.199951 27.2656 1.54304 27.2656 3.19995V6.79995C27.2656 12.1019 31.5637 16.4 36.8656 16.4H43.4656C48.7675 16.4 53.0656 12.1019 53.0656 6.79995V3.19995C53.0656 1.54304 51.7225 0.199951 50.0656 0.199951H46.4656C45.8029 0.199951 45.2656 0.737197 45.2656 1.39995C45.2656 2.06271 45.8029 2.59995 46.4656 2.59995Z" fill="#63AF90"/>
<path d="M39.2656 16.0999V40.9399C39.2656 42.5871 37.9129 43.9399 36.2656 43.9399H31.4656C30.8029 43.9399 30.2656 44.4771 30.2656 45.1399C30.2656 45.8027 30.8029 46.3399 31.4656 46.3399H36.2656C39.2384 46.3399 41.6656 43.9127 41.6656 40.9399V16.0999C41.6656 15.4371 41.1284 14.8999 40.4656 14.8999C39.8029 14.8999 39.2656 15.4371 39.2656 16.0999Z" fill="#63AF90"/>
<path d="M30.2656 44.8999C30.2656 42.4145 28.251 40.3999 25.7656 40.3999C23.2802 40.3999 21.2656 42.4145 21.2656 44.8999C21.2656 47.3853 23.2802 49.3999 25.7656 49.3999C28.251 49.3999 30.2656 47.3853 30.2656 44.8999ZM32.6656 44.8999C32.6656 48.7108 29.5766 51.7999 25.7656 51.7999C21.9547 51.7999 18.8656 48.7108 18.8656 44.8999C18.8656 41.089 21.9547 37.9999 25.7656 37.9999C29.5766 37.9999 32.6656 41.089 32.6656 44.8999ZM25.4568 16.4602C28.737 19.7404 28.737 25.0589 25.4568 28.3399L16.5468 37.2493C15.3755 38.4205 13.4758 38.4205 12.3045 37.2493L3.39441 28.3397C0.11427 25.0589 0.11427 19.7404 3.39458 16.4601C6.40554 13.4498 11.1328 13.2021 14.4256 15.7173C17.7185 13.2021 22.4457 13.4498 25.4568 16.4602ZM13.5771 18.1572C11.2341 15.8143 7.43509 15.8143 5.09157 18.1572C2.74859 20.5002 2.74859 24.2993 5.09157 26.6427L14.0016 35.5521C14.2355 35.7861 14.6158 35.7861 14.8497 35.5521L23.7596 26.6428C26.1027 24.2993 26.1027 20.5002 23.7598 18.1573C21.4162 15.8142 17.6171 15.8142 15.2742 18.1572C14.8055 18.6258 14.0458 18.6258 13.5771 18.1572V18.1572Z" fill="#63AF90"/>
</svg>
