<svg width="26" height="18" viewBox="0 0 26 18" fill="none" xmlns="http://www.w3.org/2000/svg">
<path d="M3.62451 1.56226C3.62451 0.699109 2.9254 0 2.06226 0C1.19911 0 0.5 0.699109 0.5 1.56226V3.74941V6.24902V10.2132C0.5 11.2092 0.89447 12.1622 1.59748 12.8652L5.49922 16.7669C5.9679 17.2356 6.60452 17.4973 7.26847 17.4973H9.87354C10.9085 17.4973 11.7482 16.6576 11.7482 15.6226V12.541C11.7482 11.381 11.2874 10.2679 10.4672 9.44774L9.47907 8.45962L8.88541 7.86596L7.6356 6.61615C7.1474 6.12795 6.35455 6.12795 5.86635 6.61615C5.37814 7.10436 5.37814 7.8972 5.86635 8.38541L7.11615 9.63521L7.70981 10.2289C8.13943 10.6585 8.06913 11.3693 7.5653 11.7052C7.18646 11.9591 6.67872 11.9083 6.35455 11.5841L4.35487 9.58835C3.88619 9.11967 3.62451 8.48305 3.62451 7.81909V6.24902V3.12451V1.56226ZM22.3716 1.56226V3.12451V6.24902V7.81909C22.3716 8.48305 22.1099 9.11967 21.6412 9.58835L19.6454 11.5841C19.3213 11.9083 18.8135 11.9591 18.4347 11.7052C17.9309 11.3693 17.8606 10.6546 18.2902 10.2289L18.8838 9.63521L20.1337 8.38541C20.6219 7.8972 20.6219 7.10436 20.1337 6.61615C19.6454 6.12795 18.8526 6.12795 18.3644 6.61615L17.1146 7.86596L16.5209 8.45962L15.5328 9.44774C14.7126 10.2679 14.2518 11.381 14.2518 12.541V15.6226C14.2518 16.6576 15.0915 17.4973 16.1265 17.4973H18.7315C19.3955 17.4973 20.0321 17.2356 20.5008 16.7669L24.4025 12.8652C25.1055 12.1622 25.5 11.2092 25.5 10.2132V6.24902V3.74941V1.56226C25.5 0.699109 24.8009 0 23.9377 0C23.0746 0 22.3755 0.699109 22.3755 1.56226H22.3716Z" fill="#76A985"/>
</svg>
