<svg width="31" height="25" viewBox="0 0 31 25" fill="none" xmlns="http://www.w3.org/2000/svg">
<path d="M13.7305 23.5714L13.584 23.4439L3.31836 14.4283C1.51953 12.849 0.5 10.6325 0.5 8.3107V8.12784C0.5 4.22679 3.42969 0.879861 7.48438 0.148414C9.79297 -0.272723 12.1543 0.231533 14.0352 1.48386C14.5625 1.8385 15.0547 2.24855 15.5 2.71956C15.7461 2.45358 16.0098 2.20977 16.291 1.98257C16.5078 1.80525 16.7305 1.63901 16.9648 1.48386C18.8457 0.231533 21.207 -0.272723 23.5156 0.142872C27.5703 0.87432 30.5 4.22679 30.5 8.12784V8.3107C30.5 10.6325 29.4805 12.849 27.6816 14.4283L17.416 23.4439L17.2695 23.5714C16.7891 23.9925 16.1562 24.2308 15.5 24.2308C14.8438 24.2308 14.2109 23.998 13.7305 23.5714ZM14.5098 5.66198C14.4863 5.64535 14.4688 5.62319 14.4512 5.60102L13.4082 4.49277L13.4023 4.48723C12.0488 3.05204 10.0039 2.39817 8.01172 2.75835C5.28125 3.25152 3.3125 5.50128 3.3125 8.12784V8.3107C3.3125 9.88997 4.00977 11.4027 5.23438 12.4777L15.5 21.4934L25.7656 12.4777C26.9902 11.4027 27.6875 9.88997 27.6875 8.3107V8.12784C27.6875 5.50682 25.7188 3.25152 22.9941 2.75835C21.002 2.39817 18.9512 3.05758 17.6035 4.48723C17.6035 4.48723 17.6035 4.48723 17.5977 4.49277C17.5918 4.49831 17.5977 4.49277 17.5918 4.49831L16.5488 5.60656C16.5312 5.62873 16.5078 5.64535 16.4902 5.66752C16.2266 5.91688 15.8691 6.05541 15.5 6.05541C15.1309 6.05541 14.7734 5.91688 14.5098 5.66752V5.66198Z" fill="#63AF90"/>
</svg>
